#!OML:ASF I:\golf\golf\golf 2\Subject 1\2002-09-07\Subject1.ASF
:FULLY-SPECIFIED
:DEGREES
331
root -10.6316 18.0228 4.42569 -155.131 77.2104 -174.149
lowerback 3.42661 2.23302 0.807444
upperback 4.91008 3.1108 4.55904
thorax 2.93179 1.58906 4.23563
lowerneck -12.7984 2.63857 5.34024
upperneck 36.2467 7.10341 -7.15893
head 15.2793 3.3855 -2.62992
rclavicle 3.4191e-014 -4.13472e-014
rhumerus -15.5084 22.368 -98.0183
rradius 48.5387
rwrist -50.9266
rhand -32.8684 -10.2163
rfingers 7.12502
rthumb -6.08714 -40.1088
lclavicle 3.4191e-014 -4.13472e-014
lhumerus -8.75023 -47.7996 105.713
lradius 42.559
lwrist 49.2121
lhand -6.94842 63.6841
lfingers 7.12502
lthumb -161.08 87.2161
rfemur -27.2178 -8.51315 14.8674
rtibia 27.0203
rfoot -10.1206 -17.4049
rtoes -3.64158
lfemur -33.3573 0.890079 -12.6603
ltibia 20.4123
lfoot -5.58478 -15.8787
ltoes -6.01443
332
root -10.6292 18.0221 4.42545 -155.246 77.1201 -174.234
lowerback 3.44751 2.21316 0.809126
upperback 4.92086 3.08564 4.566
thorax 2.93272 1.57681 4.24174
lowerneck -12.7941 2.68857 5.37979
upperneck 36.1457 7.20756 -7.30901
head 15.249 3.41447 -2.6811
rclavicle -3.26007e-014 -4.77083e-014
rhumerus -15.4837 22.3726 -98.0021
rradius 48.4838
rwrist -50.8405
rhand -32.8437 -10.2915
rfingers 7.12502
rthumb -6.06334 -40.1847
lclavicle -3.26007e-014 -4.77083e-014
lhumerus -8.71506 -47.7892 105.672
lradius 42.5553
lwrist 49.2834
lhand -7.03529 63.8105
lfingers 7.12502
lthumb -161.163 87.0816
rfemur -27.1473 -8.54845 14.8729
rtibia 27.0062
rfoot -10.1388 -17.4436
rtoes -3.48245
lfemur -33.3243 0.904588 -12.69
ltibia 20.3826
lfoot -5.65484 -15.961
ltoes -6.47565
333
root -10.6268 18.0224 4.42485 -155.193 77.0047 -174.153
lowerback 3.46104 2.17603 0.831628
upperback 4.92272 3.03829 4.60589
thorax 2.92941 1.55412 4.27089
lowerneck -12.7598 2.74668 5.3866
upperneck 36.0324 7.32541 -7.44031
head 15.2051 3.44798 -2.7161
rclavicle -1.43125e-014 -3.49861e-014
rhumerus -15.4992 22.4755 -97.9796
rradius 48.4742
rwrist -50.9444
rhand -32.954 -10.1577
rfingers 7.12502
rthumb -6.16981 -40.0479
lclavicle -1.43125e-014 -3.49861e-014
lhumerus -8.69452 -47.6882 105.67
lradius 42.5494
lwrist 49.2615
lhand -7.00798 63.8615
lfingers 7.12502
lthumb -161.137 87.0332
rfemur -27.0708 -8.55399 14.9112
rtibia 26.9754
rfoot -10.1848 -17.4964
rtoes -2.99508
lfemur -33.321 0.909899 -12.6592
ltibia 20.3829
lfoot -5.58392 -16.0755
ltoes -6.19428
334
root -10.6226 18.0245 4.42315 -154.989 76.8457 -173.945
lowerback 3.38847 1.99114 0.784728
upperback 4.95826 2.79182 4.77187
thorax 3.0144 1.42847 4.47942
lowerneck -12.6932 2.9338 5.1048
upperneck 35.8988 7.70275 -7.53108
head 15.1553 3.55646 -2.63796
rclavicle -4.85035e-014 -2.8625e-014
rhumerus -15.5009 23.1372 -97.9573
rradius 48.4703
rwrist -51.1581
rhand -33.1017 -10.0031
rfingers 7.12502
rthumb -6.31239 -39.889
lclavicle -4.85035e-014 -2.8625e-014
lhumerus -8.48864 -47.0066 105.613
lradius 42.4784
lwrist 49.0386
lhand -6.88332 63.8247
lfingers 7.12502
lthumb -161.017 87.0817
rfemur -26.9975 -8.56709 14.9921
rtibia 26.9324
rfoot -10.2572 -17.5706
rtoes -2.57001
lfemur -33.35 0.911462 -12.5853
ltibia 20.3933
lfoot -5.45769 -16.242
ltoes -5.44055
335
root -10.619 18.0256 4.42031 -154.773 76.6773 -173.716
lowerback 3.36636 1.67694 0.586501
upperback 4.99679 2.37601 5.10233
thorax 3.07757 1.21274 4.94655
lowerneck -12.6709 3.20978 4.46975
upperneck 35.7958 8.32593 -7.63566
head 15.139 3.71933 -2.4603
rclavicle -7.15625e-015 5.725e-014
rhumerus -15.5122 24.3895 -97.8606
rradius 48.4106
rwrist -51.3793
rhand -33.0661 -9.98387
rfingers 7.12502
rthumb -6.27801 -39.8708
lclavicle -7.15625e-015 5.725e-014
lhumerus -8.15274 -45.7796 105.609
lradius 42.3567
lwrist 48.7654
lhand -6.92269 63.8466
lfingers 7.12502
lthumb -161.055 87.0561
rfemur -26.9162 -8.65436 15.1028
rtibia 26.8788
rfoot -10.2383 -17.6132
rtoes -2.72138
lfemur -33.3752 0.894294 -12.5134
ltibia 20.4175
lfoot -5.50118 -16.3694
ltoes -5.62843
336
root -10.6164 18.0259 4.41821 -154.73 76.6192 -173.654
lowerback 3.45853 1.53379 0.371235
upperback 4.96976 2.19049 5.32604
thorax 2.99831 1.11313 5.30266
lowerneck -12.7201 3.3619 4.06446
upperneck 35.832 8.71062 -7.7015
head 15.1904 3.81893 -2.34887
rclavicle 2.78299e-014 -1.59028e-014
rhumerus -15.6282 25.1038 -97.7556
rradius 48.4108
rwrist -51.5426
rhand -33.0132 -9.99244
rfingers 7.12502
rthumb -6.22696 -39.8809
lclavicle 2.78299e-014 -1.59028e-014
lhumerus -8.05988 -45.1394 105.758
lradius 42.2787
lwrist 48.648
lhand -7.00194 63.8697
lfingers 7.12502
lthumb -161.131 87.0255
rfemur -26.8558 -8.70785 15.1384
rtibia 26.8344
rfoot -10.1813 -17.6245
rtoes -3.10412
lfemur -33.3588 0.867411 -12.4951
ltibia 20.4339
lfoot -5.59348 -16.378
ltoes -6.04441
337
root -10.6134 18.0275 4.41789 -154.673 76.673 -173.596
lowerback 3.50242 1.57081 0.276458
upperback 4.94022 2.24062 5.35853
thorax 2.93404 1.13563 5.38732
lowerneck -12.7806 3.40322 4.05217
upperneck 35.8926 8.82456 -7.78067
head 15.2502 3.85545 -2.35982
rclavicle 3.26007e-014 1.90833e-014
rhumerus -15.6995 25.1328 -97.7412
rradius 48.4394
rwrist -51.6051
rhand -33.1422 -10.0231
rfingers 7.12502
rthumb -6.35149 -39.9078
lclavicle 3.26007e-014 1.90833e-014
lhumerus -8.12928 -45.2085 105.844
lradius 42.2784
lwrist 48.711
lhand -6.9785 63.7648
lfingers 7.12502
lthumb -161.109 87.1325
rfemur -26.846 -8.67426 15.1321
rtibia 26.8184
rfoot -10.1975 -17.63
rtoes -3.33238
lfemur -33.3181 0.855293 -12.4739
ltibia 20.4278
lfoot -5.59299 -16.3119
ltoes -5.81458
